<svg id="Brown.svg" xmlns="http://www.w3.org/2000/svg" xmlns:xlink="http://www.w3.org/1999/xlink" width="500" height="500" viewBox="0 0 500 500">
  <defs>
    <style>
      .cls-1 {
        fill: #305aed;
        filter: url(#filter);
      }

      .cls-2 {
        fill: #fff;
        fill-rule: evenodd;
      }
    </style>
    <filter id="filter" x="-5" y="-3" width="511" height="511" filterUnits="userSpaceOnUse">
      <feGaussianBlur result="blur" stdDeviation="1.667" in="SourceAlpha"/>
      <feComposite result="composite"/>
      <feComposite result="composite-2"/>
      <feComposite result="composite-3"/>
      <feFlood result="flood" flood-color="#000101" flood-opacity="0.11"/>
      <feComposite result="composite-4" operator="in" in2="composite-3"/>
      <feBlend result="blend" in2="SourceGraphic"/>
      <feBlend result="blend-2" in="SourceGraphic"/>
    </filter>
  </defs>
  <circle class="cls-1" cx="250" cy="252" r="251"/>
  <path id="horse" class="cls-2" d="M311.187,116.611c-15.159,11.457-30.2,22.492-44.815,34.062-4.822,3.818-8.817,8.79-12.693,13.625-20.878,26.041-24.1,54.271-10.107,84.517,7.255,15.682,17.531,29.331,28.884,42.269,13.42,15.3,26.045,31.31,33.928,50.062,5.243,12.468,9.569,25.694,11.675,38.984,3.951,24.924-3.578,47.376-20.315,66.3-21.509,24.322-49.477,36.623-81.575,40.58,2.76-1.079-4.482-2.164-1.718-3.236,20.352-7.893,38.784-18.774,54.074-34.412,23.324-23.854,30.231-51.876,18.5-82.986-5.418-14.364-13.616-27.871-21.831-40.984-6.071-9.689-14.122-18.18-21.443-27.081-13.372-16.26-24.7-33.648-30.773-53.951-9.168-30.644-3.331-58.357,17.385-82.652C249.225,139.584,283.914,126.177,311.187,116.611Zm43.156,0.226c21.691,35.7,47.9,68.143,74,100.659,4.871,6.069,9.541,12.376,15.035,17.855,5.954,5.939,7.581,12.759,6.143,20.442-1.276,6.818-3.293,13.5-4.983,20.242-0.611-.138-6.222,3.725-6.834,3.587,0-9.7-2-21.4-2-30.172C397.583,210.567,364.329,186.2,354.343,116.837Zm12.563-53.761,0.254-.2c-0.058.163-.116,0.33-0.175,0.494C366.961,63.275,366.925,63.171,366.906,63.076Zm0.079,0.3c1.127,4.575,7.777,11.971,7.439,16.33-1.23,15.885-11.351,34.55-26.443,43.688,6.276-17.51,10.19-36.215,16.083-53.382a12.365,12.365,0,0,0-3.488,3.949c-5.414,9.262-11.759,18.932-23.907,21.549,1.475-4.116,2.737-12.636,3.751-15.463C333.3,83.9,325.852,92.937,318.4,96.973q-0.139-1.1-.281-2.209c-2.689-2.06-5.115-4.652-8.107-6.092-18.711-9.005-38.4-14.267-58.642-10.745-15.092,2.627-30.154,5.484-45.319,7.617-13.527,1.9-26.716-6.319-39.5-11.617,28.988,6.129,56.139-4.352,83.905-8.716,24.711-3.884,47.285,3.174,67.551,17.821,11.91-2.753,17.034-13.837,26.838-22.031l5,13c3.565-3.107,7.089-6.538,11.021-9.424,1.54-1.13,4-1.035,6.036-1.5l0.053,0.373C366.968,63.423,366.976,63.4,366.985,63.373ZM326.828,253.094c12.237,4.356,22.166,7.926,32.12,11.423,6.771,2.378,13.655,4.458,20.348,7.028,7.391,2.838,12.359,7.776,14.377,15.835,2.148,8.574,6.742,11.682,15.708,11.2,6.168-.331,12.29-1.52,18.585-1.622-8.851,4.765-18.156,15.009-28.472,12.4-5.779-1.462-11.11-5.443-12.39-11.309-1.767-8.1-6.311-11.837-13.532-14.139-5.651-1.8-11.371-3.406-16.963-5.371-9.675-3.4-19.275-7.015-30.586-11.154-16.017,4.128-32.882,2.2-48.514-15.6C294.451,258.566,311.446,259.461,326.828,253.094ZM45.014,170.773c10.052-9.859,22.2-19.331,35.953-20.627,20.2-1.9,40.461-3.235,62.775-4.972-11.162,6.055-21.55,13.646-31.924,15-7.444.975-14.968,1.467-22.474,1.842C73.9,162.792,59.18,164.36,45.014,170.773Zm35.859-31.085C91.5,129.6,106.487,119.916,120.656,119.18c19.967-1.037,39.983-1.133,61.883-1.678-9.483,4.9-20.286,12.913-28.955,13.819-8.7.911-17.5,1.1-26.262,1.266C111.3,132.882,95.67,132.922,80.873,139.688ZM241.811,94.02c-22.753-1.469-47.718,12.225-69.553,15.737-14.635,2.353-29.21-.342-43.671-3.254,11.873-5.969,15.381-4.975,29.309-5.411,17.323-2.447,34.444-6.266,51.726-9.048C220.376,90.313,231.239,89.959,241.811,94.02ZM53.877,194c13.262-6.181,26.336-12.808,39.851-18.388,9.4-3.883,19.44-.915,29.676,2.886-15.527.5-28.834,9.338-42.516,15.376-8.45,3.729-22.52,7.083-31.312,10.054C49.342,203.282,54.11,194.64,53.877,194Z"/>
</svg>
