<svg xmlns="http://www.w3.org/2000/svg" width="7" height="22" viewBox="0 0 7 22">
  <defs>
    <style>
      .cls-1 {
        fill: #b6b9bf;
        fill-rule: evenodd;
      }
    </style>
  </defs>
  <path id="Forma_1" data-name="Forma 1" class="cls-1" d="M9,4.321A3.419,3.419,0,0,1,12.5,1,3.419,3.419,0,0,1,16,4.321a3.419,3.419,0,0,1-3.5,3.322A3.419,3.419,0,0,1,9,4.321ZM9,11.8a3.419,3.419,0,0,1,3.5-3.321A3.418,3.418,0,0,1,16,11.8a3.419,3.419,0,0,1-3.5,3.322A3.419,3.419,0,0,1,9,11.8Zm0,7.88a3.419,3.419,0,0,1,3.5-3.322A3.326,3.326,0,1,1,12.5,23,3.419,3.419,0,0,1,9,19.679Z" transform="translate(-9 -1)"/>
</svg>
