<svg xmlns="http://www.w3.org/2000/svg" width="17.813" height="18.875" viewBox="0 0 17.813 18.875">
  <defs>
    <style>
      .cls-1 {
        fill: #081d54;
        fill-rule: evenodd;
      }
    </style>
  </defs>
  <path class="cls-1" d="M17.618,18.278l-4.356-4.745a8.153,8.153,0,0,0,1.782-4.947A7.567,7.567,0,0,0,7.42,1.115,7.52,7.52,0,0,0,.093,8.889,7.532,7.532,0,0,0,7.519,16.36a7.2,7.2,0,0,0,4.257-1.413l4.455,4.745a0.945,0.945,0,0,0,1.386,0A0.989,0.989,0,0,0,17.618,18.278ZM7.519,2.831a5.69,5.69,0,0,1,5.743,5.654,5.7,5.7,0,0,1-5.545,5.856A5.675,5.675,0,0,1,2.073,8.687v-0.1A5.534,5.534,0,0,1,7.519,2.831Z" transform="translate(-0.094 -1.125)"/>
</svg>
