<svg xmlns="http://www.w3.org/2000/svg" width="20" height="12" viewBox="0 0 20 12">
  <defs>
    <style>
      .cls-1 {
        fill: #a2a2a2;
        fill-rule: evenodd;
      }
    </style>
  </defs>
  <path id="Forma_1" data-name="Forma 1" class="cls-1" d="M109,288.447v-2.7A1.783,1.783,0,0,1,107.2,284H90.8a1.783,1.783,0,0,1-1.8,1.745v2.7a1.554,1.554,0,1,1,0,3.106v2.7A1.782,1.782,0,0,1,90.8,296h16.4a1.782,1.782,0,0,1,1.8-1.745v-2.7A1.554,1.554,0,1,1,109,288.447ZM105,292a2.2,2.2,0,0,1-2,2H95a2.2,2.2,0,0,1-2-2v-4a2.2,2.2,0,0,1,2-2h8a2.2,2.2,0,0,1,2,2v4Zm-4.4-2.83H99.791l-0.242-.745a0.618,0.618,0,0,0-.374-0.361,0.58,0.58,0,0,0-.725.361l-0.242.745H97.44a0.531,0.531,0,0,0-.505.234,0.543,0.543,0,0,0,.132.787l0.659,0.447-0.264.745a0.54,0.54,0,0,0,.088.511,0.606,0.606,0,0,0,.813.127l0.659-.468,0.615,0.426a0.57,0.57,0,0,0,.55.106,0.562,0.562,0,0,0,.373-0.7l-0.263-.745,0.659-.447a0.548,0.548,0,0,0,.242-0.446A0.612,0.612,0,0,0,100.6,289.17Z" transform="translate(-89 -284)"/>
</svg>
