<svg xmlns="http://www.w3.org/2000/svg" width="25" height="22.25" viewBox="0 0 25 22.25">
  <defs>
    <style>
      .cls-1 {
        fill: #9599a2;
        fill-rule: evenodd;
      }
    </style>
  </defs>
  <path id="Forma_1" data-name="Forma 1" class="cls-1" d="M518.182,495.985a1.084,1.084,0,0,1-1.212.867H501.212a1.084,1.084,0,0,1-1.212-.867V484.708a1.084,1.084,0,0,1,1.212-.867H516.97a1.085,1.085,0,0,1,1.212.867v11.277h0Zm-13.637-18.7a3.062,3.062,0,1,1-3.03,3.061A3.046,3.046,0,0,1,504.545,477.281Zm8.334-1.531a3.827,3.827,0,1,1-3.788,3.827A3.807,3.807,0,0,1,512.879,475.75ZM525,497.235a0.86,0.86,0,0,1-.808.765c-0.707,0-5.253-4.283-5.253-4.847V487.54c0-.563,4.445-4.847,5.253-4.847a0.763,0.763,0,0,1,.808.765v13.777Z" transform="translate(-500 -475.75)"/>
</svg>
