<?xml version="1.0" encoding="utf-8"?>
<!-- Generator: Adobe Illustrator 22.0.1, SVG Export Plug-In . SVG Version: 6.00 Build 0)  -->
<svg version="1.1" id="Layer_1" xmlns="http://www.w3.org/2000/svg" xmlns:xlink="http://www.w3.org/1999/xlink" x="0px" y="0px"
	 viewBox="0 0 7 22" style="enable-background:new 0 0 7 22;" xml:space="preserve">
<style type="text/css">
	.st0{fill:#B8A057;}
</style>
<path id="Forma_1" class="st0" d="M0,3.3C0.1,1.4,1.6,0,3.5,0C5.4,0,6.9,1.4,7,3.3C6.9,5.2,5.4,6.7,3.5,6.6C1.6,6.7,0.1,5.2,0,3.3z
	 M0,10.8c0.1-1.9,1.6-3.4,3.5-3.3c1.9,0,3.4,1.4,3.5,3.3c-0.1,1.9-1.6,3.4-3.5,3.3C1.6,14.2,0.1,12.7,0,10.8z M0,18.7
	c0.1-1.9,1.6-3.4,3.5-3.3c1.8-0.1,3.4,1.3,3.5,3.1c0.1,1.8-1.3,3.4-3.1,3.5c-0.1,0-0.2,0-0.4,0C1.6,22,0.1,20.6,0,18.7L0,18.7z"/>
</svg>
