<svg xmlns="http://www.w3.org/2000/svg" width="11" height="16" viewBox="0 0 11 16">
  <defs>
    <style>
      .cls-1 {
        fill: #676d7b;
        fill-rule: evenodd;
      }
    </style>
  </defs>
  <path class="cls-1" d="M129.5,378a5.425,5.425,0,0,0-5.5,5.333,5.226,5.226,0,0,0,.66,2.535l4.539,7.96a0.349,0.349,0,0,0,.6,0l4.54-7.963a5.216,5.216,0,0,0,.659-2.532A5.425,5.425,0,0,0,129.5,378Zm0,8a2.668,2.668,0,1,1,2.75-2.667A2.712,2.712,0,0,1,129.5,386Z" transform="translate(-124 -378)"/>
</svg>
