<svg xmlns="http://www.w3.org/2000/svg" width="16" height="19" viewBox="0 0 16 19">
  <defs>
    <style>
      .cls-1 {
        fill: #c2c5ca;
        fill-rule: evenodd;
      }
    </style>
  </defs>
  <path id="Forma_1" data-name="Forma 1" class="cls-1" d="M10.449,12.986a1.823,1.823,0,0,1,1.641-.956,1,1,0,0,0,1.1-1.113,1.842,1.842,0,0,1,.945-1.653,1,1,0,0,0,.4-1.517,1.859,1.859,0,0,1,0-1.911,1,1,0,0,0-.4-1.514,1.848,1.848,0,0,1-.945-1.658,0.994,0.994,0,0,0-1.1-1.11A1.827,1.827,0,0,1,10.449.6a0.982,0.982,0,0,0-1.5-.407,1.813,1.813,0,0,1-1.894,0A0.983,0.983,0,0,0,5.552.6a1.822,1.822,0,0,1-1.641.955,0.993,0.993,0,0,0-1.1,1.11,1.855,1.855,0,0,1-.947,1.658,1,1,0,0,0-.4,1.514,1.851,1.851,0,0,1,0,1.911,1,1,0,0,0,.4,1.517,1.846,1.846,0,0,1,.947,1.653,0.994,0.994,0,0,0,1.1,1.113,1.823,1.823,0,0,1,1.642.956,0.98,0.98,0,0,0,1.5.4,1.828,1.828,0,0,1,1.894,0A0.98,0.98,0,0,0,10.449,12.986ZM8,10.79a4,4,0,1,1,3.96-4A3.98,3.98,0,0,1,8,10.79ZM3.848,12.617a0.78,0.78,0,0,1-.863-0.358l-2.973,5.9L2.4,17.886l1.319,2S6.46,14.1,6.46,14.143C5.037,14.107,5.6,12.655,3.848,12.617Zm9.13-.127c-2.172.229-1.73,0.774-2.227,1.2a1.522,1.522,0,0,1-1.286.495L12.818,20l0.825-2.157,2.344,0.309ZM8.829,5.908L8,4.214,7.171,5.908l-1.855.274L6.656,7.5,6.34,9.369,8,8.489,9.661,9.369,9.345,7.5l1.341-1.32Z"/>
</svg>
