<svg xmlns="http://www.w3.org/2000/svg" width="13" height="15" viewBox="0 0 13 15">
  <defs>
    <style>
      .cls-1 {
        fill: #db3c34;
        fill-rule: evenodd;
      }
    </style>
  </defs>
  <path id="Forma_1" data-name="Forma 1" class="cls-1" d="M263,345.694l0.712-.926a0.354,0.354,0,0,0-.1-0.519l-1.073-.7a0.427,0.427,0,0,0-.564.089l-0.73.948a6.867,6.867,0,0,0-1.722-.487v-0.386a0.471,0.471,0,0,1,.488-0.449h0.269a0.471,0.471,0,0,0,.488-0.449v-1.366a0.471,0.471,0,0,0-.488-0.449h-3.564a0.471,0.471,0,0,0-.488.449v1.366a0.471,0.471,0,0,0,.488.449h0.269a0.471,0.471,0,0,1,.488.449V344.1a6.84,6.84,0,0,0-1.838.538l-0.722-.94a0.428,0.428,0,0,0-.564-0.088l-1.073.7a0.354,0.354,0,0,0-.1.519l0.729,0.948a5.743,5.743,0,0,0-1.91,4.236,6.522,6.522,0,0,0,13,0A5.757,5.757,0,0,0,263,345.694Zm-4.5,8.869a4.566,4.566,0,1,1,4.94-4.551A4.763,4.763,0,0,1,258.5,354.563Zm4.073-4.581a3.93,3.93,0,0,0-4.073-3.722h-0.032v3.721h-4.041c0,0.01,0,.02,0,0.03a3.925,3.925,0,0,0,4.042,3.752H258.5a3.927,3.927,0,0,0,4.073-3.753v-0.03Z" transform="translate(-252 -341)"/>
</svg>
