<?xml version="1.0" encoding="utf-8"?>
<!-- Generator: Adobe Illustrator 22.0.1, SVG Export Plug-In . SVG Version: 6.00 Build 0)  -->
<svg version="1.1" id="Layer_1" xmlns="http://www.w3.org/2000/svg" xmlns:xlink="http://www.w3.org/1999/xlink" x="0px" y="0px"
	 viewBox="0 0 12 7" style="enable-background:new 0 0 12 7;" xml:space="preserve">
<style type="text/css">
	.st0{fill:#B8A057;}
</style>
<path id="Rectangle_2_copy" class="st0" d="M11.8,1.3L6.6,6.6c0,0.1-0.1,0.1-0.1,0.2c-0.3,0.3-0.8,0.3-1.1,0c0,0-0.1-0.1-0.1-0.2
	L0.2,1.3c-0.3-0.3-0.3-0.8,0-1.1c0.3-0.3,0.7-0.3,1,0c0,0,0,0,0,0L6,5.1l4.7-4.9c0.3-0.3,0.7-0.3,1,0c0,0,0,0,0,0
	C12.1,0.5,12.1,1,11.8,1.3z"/>
</svg>
