<svg xmlns="http://www.w3.org/2000/svg" width="13" height="15" viewBox="0 0 13 15">
  <defs>
    <style>
      .cls-1 {
        fill: #38ada9;
        fill-rule: evenodd;
      }
    </style>
  </defs>
  <path id="Forma_1" data-name="Forma 1" class="cls-1" d="M134,345.694l0.712-.926a0.354,0.354,0,0,0-.1-0.519l-1.073-.7a0.427,0.427,0,0,0-.564.089l-0.73.948a6.867,6.867,0,0,0-1.722-.487v-0.386a0.471,0.471,0,0,1,.488-0.449h0.269a0.471,0.471,0,0,0,.488-0.449v-1.366a0.471,0.471,0,0,0-.488-0.449h-3.564a0.471,0.471,0,0,0-.488.449v1.366a0.471,0.471,0,0,0,.488.449h0.269a0.471,0.471,0,0,1,.488.449V344.1a6.84,6.84,0,0,0-1.838.538l-0.722-.94a0.427,0.427,0,0,0-.564-0.088l-1.073.7a0.353,0.353,0,0,0-.1.519l0.728,0.948a5.747,5.747,0,0,0-1.91,4.236,6.522,6.522,0,0,0,13,0A5.758,5.758,0,0,0,134,345.694Zm-4.5,8.869a4.566,4.566,0,1,1,4.94-4.551A4.763,4.763,0,0,1,129.5,354.563Zm0-8.3h-0.032v3.721h4.1A3.929,3.929,0,0,0,129.5,346.26Z" transform="translate(-123 -341)"/>
</svg>
