<svg xmlns="http://www.w3.org/2000/svg" width="24" height="19.344" viewBox="0 0 24 19.344">
  <defs>
    <style>
      .cls-1 {
        fill: #9599a2;
        fill-rule: evenodd;
      }
    </style>
  </defs>
  <path id="Forma_1" data-name="Forma 1" class="cls-1" d="M487.448,478.59a1.918,1.918,0,0,0-1.412-.591H466.043a1.92,1.92,0,0,0-1.412.591,1.946,1.946,0,0,0-.587,1.423V495.32a1.946,1.946,0,0,0,.587,1.423,1.92,1.92,0,0,0,1.412.591h19.994a1.921,1.921,0,0,0,1.412-.591,1.95,1.95,0,0,0,.587-1.423V480.013A1.947,1.947,0,0,0,487.448,478.59Zm-1.012,16.73a0.406,0.406,0,0,1-.4.4H466.043a0.382,0.382,0,0,1-.281-0.12,0.388,0.388,0,0,1-.119-0.283V480.013a0.39,0.39,0,0,1,.119-0.284,0.385,0.385,0,0,1,.281-0.119h19.994a0.385,0.385,0,0,1,.281.119,0.389,0.389,0,0,1,.118.284V495.32h0Zm-16.794-9.265a2.308,2.308,0,0,0,1.7-.7,2.446,2.446,0,0,0,0-3.424,2.4,2.4,0,0,0-3.4,0,2.444,2.444,0,0,0,0,3.424A2.3,2.3,0,0,0,469.642,486.055Zm3.6,3.626-2-2.014-4,4.028v2.417h17.594v-5.64l-5.2-5.237Z" transform="translate(-464.031 -478)"/>
</svg>
