<svg xmlns="http://www.w3.org/2000/svg" width="204" height="72" viewBox="0 0 204 72">
  <defs>
    <style>
      .cls-1 {
        fill: #001e46;
        fill-rule: evenodd;
      }
    </style>
  </defs>
  <path class="cls-1" d="M202.293,56.677v3.5c0,0.8.2,1.3,0.9,1.3a1.71,1.71,0,0,0,.7-0.1l0.1,0.9a3.612,3.612,0,0,1-1.1.2,2.113,2.113,0,0,1-1.3-.5,2.619,2.619,0,0,1-.5-1.7v-3.6h-1v-0.9h1v-1.6l1.2-.3v1.9H204v0.9h-1.7Zm-1.805-22.931-0.3-.1V29.34c-5.814-5.908-10.827-12.116-13.333-19.927a140.977,140.977,0,0,0,11.228,15.421,29.7,29.7,0,0,0,2.305,2.7,3.262,3.262,0,0,1,.9,3.1,27.905,27.905,0,0,1-.8,3.1h0ZM185.853,9.413L188.76,1.3a14.2,14.2,0,0,1,.4,2C188.96,5.708,187.657,7.611,185.853,9.413Zm2.1-7.11a5.245,5.245,0,0,1-3.809,2.8l0.6-1.6-3.308,1.8v-0.3a4.712,4.712,0,0,0-1.2-.9,13.725,13.725,0,0,0-8.921-1c-2.306.4-4.612,0.8-6.817,1.2a10.469,10.469,0,0,1-6.014-.9c4.41,0.9,8.52-.7,12.73-1.3a12.818,12.818,0,0,1,10.225,2.3c1.805-.4,2.607-2.1,4.11-3.4l0.8,2a11.548,11.548,0,0,1,1.7-1.4,2.935,2.935,0,0,1,.9-0.2h0V1.5h0A1.378,1.378,0,0,0,187.958,2.3Zm-18.144,3.6c-3.408-.2-6.616,1.1-9.924,1.6a18.389,18.389,0,0,1-6.616-.2V7.01a24.175,24.175,0,0,0,3.809,0c2.606-.4,5.213-1,7.819-1.4a10.17,10.17,0,0,1,4.912.3h0Zm-13.032,4.706c-1.3.1-2.606,0.2-4.009,0.2a16.9,16.9,0,0,0-7.017,1.4,8.679,8.679,0,0,1,5.713-2.4c3.008-.2,6.015-0.2,9.323-0.3A10.854,10.854,0,0,1,156.782,10.615Zm-6.616,4.506c-1.1.1-2.305,0.2-3.408,0.3a19.4,19.4,0,0,0-6.716,1.6,8.27,8.27,0,0,1,5.413-2.5c3.107-.3,6.115-0.5,9.523-0.8a12.074,12.074,0,0,1-4.812,1.4h0Zm-1.4,2.5a18.257,18.257,0,0,1,7.618,1.6l-0.8,1.8a15.1,15.1,0,0,0-9.122-1.4,11.428,11.428,0,0,0-4.009,1.5,9.128,9.128,0,0,0-2.106,1.8c-2.105,2.3-3.107,5.507-3.107,9.513,0,4.105,1,7.31,2.907,9.613s4.812,3.4,8.42,3.4a25.264,25.264,0,0,0,6.717-.9v1.8a21.713,21.713,0,0,1-7.218,1q-6.165,0-9.623-3.905c-2.306-2.6-3.509-6.309-3.509-11.015a16.448,16.448,0,0,1,1.7-7.811,11.533,11.533,0,0,1,4.812-5.207,15.516,15.516,0,0,1,7.318-1.8h0Zm-12.43,43.058h0c0.3-.9.6-1.9,1-3.1l1.6-4.406h1.5l0.6,9.112h-1.1l-0.2-4.005c-0.1-1.3-.1-2.8-0.1-3.905h0c-0.3,1.1-.7,2.2-1.1,3.5l-1.6,4.406h-0.9l-1.7-4.306c-0.4-1.3-.8-2.5-1.1-3.5h0c0,1.1-.1,2.7-0.2,4.005l-0.2,3.905h-1.1l0.6-9.112h1.5l1.6,4.406A24.414,24.414,0,0,1,136.333,60.683ZM126.308,18.125h2V47.064h-2V18.125Zm1.8,40.655v0.6H123.5a2.132,2.132,0,0,0,1.9,2.3h0.3a5.682,5.682,0,0,0,1.8-.3l0.2,0.9a5.4,5.4,0,0,1-2.206.4,3.026,3.026,0,0,1-3.207-2.8v-0.5c0-2,1.2-3.5,3.107-3.5,2.1-.2,2.707,1.7,2.707,2.9h0Zm-2.807-2.3a1.953,1.953,0,0,0-1.8,1.9h3.508a1.693,1.693,0,0,0-1.4-1.9h-0.3Zm-12.731-9.413H110.57V20.028h-9.423v-1.9H122v1.9h-9.423V47.064h0ZM101.949,62.385h-1.2v-3.7c0-1.3-.5-2-1.4-2a1.608,1.608,0,0,0-1.4,1.1,1.269,1.269,0,0,0-.1.6v4.005h-1.2V58.48a1.554,1.554,0,0,0-1.4-1.8,1.834,1.834,0,0,0-1.6,1.8v3.905h-1.2V57.578a10.28,10.28,0,0,0-.1-1.8h1l0.1,1.1h0a2.251,2.251,0,0,1,2.105-1.2,2.056,2.056,0,0,1,1.9,1.3h0a5.506,5.506,0,0,1,.7-0.9,2.4,2.4,0,0,1,1.4-.5c0.9,0,2.106.6,2.106,2.8l0.3,4.005h0ZM82.6,18.125H98.441v1.8H84.607V30.942H97.639v1.9H84.607V45.262H98.441v1.9H82.6V18.125h0ZM80.3,53.573c-1,0-1.3.9-1.3,1.9v0.4h1.6v0.9h-1.6v5.608h-1.2V56.777h-0.9v-0.9h0.9v-0.3a2.857,2.857,0,0,1,.8-2.3,2.278,2.278,0,0,1,1.6-.6,3.563,3.563,0,0,1,1,.2l-0.2.9a0.846,0.846,0,0,0-.7-0.2h0Zm-5.914,4.706c0,0.2-.1.4-0.1,0.6v3.5h-1.1V57.879a12.131,12.131,0,0,0-.1-2h1v1.3h0.1a1.925,1.925,0,0,1,1.8-1.4h0.3v1.1h-0.4a1.514,1.514,0,0,0-1.5,1.4h0ZM63.757,47.465c-3.308,0-6.015-.9-7.819-2.8-1.9-1.9-2.807-4.506-2.807-7.911V18.125h2V36.85a9.135,9.135,0,0,0,2.306,6.509,8.736,8.736,0,0,0,6.516,2.3,8.764,8.764,0,0,0,6.416-2.3,8.661,8.661,0,0,0,2.306-6.309V18.125h2V36.85a10.308,10.308,0,0,1-2.907,7.811,11.137,11.137,0,0,1-8.019,2.8h0ZM55.837,58.48v3.905h-1.2V58.58c0-1.1-.4-1.9-1.5-1.9a1.716,1.716,0,0,0-1.6,1.2,1.268,1.268,0,0,0-.1.6v3.905h-1.2V57.578a10.29,10.29,0,0,0-.1-1.8h1.1l0.1,1.1h0a2.232,2.232,0,0,1,2.205-1.2c0.9,0,2.306.5,2.306,2.8h0Zm-8.32,3h0a2.785,2.785,0,0,1-2,1,1.887,1.887,0,0,1-2-1.7v-0.2c0-1.6,1.4-2.4,3.91-2.4v-0.1a1.344,1.344,0,0,0-1.2-1.5h-0.3a3.382,3.382,0,0,0-1.7.5l-0.3-.8a3.948,3.948,0,0,1,2.105-.6c2,0,2.506,1.4,2.506,2.7v2.4a9.157,9.157,0,0,0,.1,1.6h-1.1v-0.9Zm-0.1-2.5c-1.3,0-2.807.2-2.807,1.5a1.03,1.03,0,0,0,1,1.1h0.2a1.718,1.718,0,0,0,1.6-1.1,2.266,2.266,0,0,0,.1-0.4l-0.1-1.1h0ZM37.393,47.064l2.807,2.9H37.292l-2.205-2.6h-1.3a11.908,11.908,0,0,1-9.523-4.005c-2.306-2.7-3.408-6.309-3.408-10.915s1.2-8.211,3.509-10.915a12.233,12.233,0,0,1,9.523-4.005c4.01,0,7.218,1.3,9.523,4.005s3.408,6.309,3.408,10.915a17.074,17.074,0,0,1-2.506,9.613A11.237,11.237,0,0,1,37.393,47.064ZM41.8,22.932c-1.8-2.2-4.511-3.3-7.919-3.3a9.89,9.89,0,0,0-8.019,3.4c-1.9,2.2-2.807,5.407-2.807,9.613,0,4.106.9,7.31,2.807,9.613,1.8,2.3,4.511,3.4,7.919,3.4,3.508,0,6.115-1.1,8.02-3.4,1.8-2.2,2.807-5.507,2.807-9.613C44.61,28.339,43.608,25.135,41.8,22.932ZM23.659,55.676c2.105,0,2.706,1.9,2.706,3.1v0.6H21.755a2.133,2.133,0,0,0,1.9,2.3h0.3a5.684,5.684,0,0,0,1.8-.3l0.2,0.9a5.4,5.4,0,0,1-2.205.4,3.026,3.026,0,0,1-3.208-2.8v-0.5C20.552,57.178,21.755,55.676,23.659,55.676Zm1.6,2.8a1.693,1.693,0,0,0-1.4-1.9h-0.2a1.953,1.953,0,0,0-1.8,1.9h3.408Zm-7.017,2.8h0a2.516,2.516,0,0,1-2.205,1.2c-1,0-2.306-.6-2.306-2.9V55.776h1.3v3.6c0,1.2.4,2.1,1.5,2.1a1.718,1.718,0,0,0,1.6-1.1,1.269,1.269,0,0,0,.1-0.6V55.776h1.2v4.807a9.72,9.72,0,0,0,.1,1.8h-1.1ZM0,18.125H15.84v1.8H2.007V30.942H15.038v1.9H2.007V45.262H15.84v1.9H0V18.125ZM5.114,54.174H1.405v2.9H4.914v1H1.405v3.3H5.315v1H0.2V53.273H5.114v0.9h0Zm3.909,1.5a2.312,2.312,0,0,1,2,1.1h0v-1h1.1v9.212h-1.1v-3.7h0a2.357,2.357,0,0,1-2.105,1.2,3.007,3.007,0,0,1-2.807-3.3C6.016,56.777,7.62,55.676,9.024,55.676Zm0.2,5.908a1.718,1.718,0,0,0,1.7-1.3,1.268,1.268,0,0,0,.1-0.6v-1.2a0.9,0.9,0,0,0-.1-0.5,1.62,1.62,0,0,0-1.7-1.3c-1.2,0-2,1-2,2.5A2.176,2.176,0,0,0,9.224,61.584Zm19.748,0a0.97,0.97,0,0,0,1.2-.8v-0.2c0-.6-0.3-0.9-1.2-1.2a2.049,2.049,0,0,1-1.7-1.8,1.951,1.951,0,0,1,2.105-1.9h0.2a2.944,2.944,0,0,1,1.6.4l-0.3.9a3.269,3.269,0,0,0-1.3-.4,0.993,0.993,0,0,0-1.1.8v0.1c0,0.5.4,0.8,1.2,1.1a2.1,2.1,0,0,1,1.7,2,2.131,2.131,0,0,1-2.406,2,3.673,3.673,0,0,1-1.8-.4l0.3-.9a6.66,6.66,0,0,0,1.5.3h0Zm4.01-7.31,1.2-.3v1.9h1.7v0.9h-1.8v3.5c0,0.8.2,1.3,0.9,1.3a1.708,1.708,0,0,0,.7-0.1l0.1,0.9a3.608,3.608,0,0,1-1.1.2,2.112,2.112,0,0,1-1.3-.5,2.619,2.619,0,0,1-.5-1.7v-3.6h-1v-0.9h1l0.1-1.6h0Zm4.912,2.8h0a2.049,2.049,0,0,1,1.9-1.4h0.3v1.1H39.7a1.712,1.712,0,0,0-1.6,1.5c0,0.2-.1.4-0.1,0.6v3.5h-1.2V57.879a12.131,12.131,0,0,0-.1-2h1ZM41.7,53.173a0.7,0.7,0,1,1-.7.7c-0.1-.3.2-0.6,0.7-0.7h0Zm0.6,9.212H41.1V55.876h1.2v6.509h0ZM64.96,53.873a2.734,2.734,0,0,1,.8,1.9,2.641,2.641,0,0,1-.7,1.9,3.755,3.755,0,0,1-2.807,1,2.779,2.779,0,0,1-.9-0.1v3.6h-1.2V53.173a16.461,16.461,0,0,1,2.306-.2,6.333,6.333,0,0,1,2.506.9h0Zm-3.709,3.905a3.094,3.094,0,0,0,1,.1c1.4,0,2.306-.7,2.306-1.9a1.827,1.827,0,0,0-2.105-1.8,4.114,4.114,0,0,0-1.1.1l-0.1,3.5h0Zm8.019-2.1c2.105,0,2.707,1.9,2.707,3.1v0.6H67.365a2.133,2.133,0,0,0,1.9,2.3h0.3a5.684,5.684,0,0,0,1.8-.3l0.2,0.9a5.4,5.4,0,0,1-2.205.4,3.026,3.026,0,0,1-3.208-2.8v-0.5c0-2.2,1.2-3.705,3.108-3.705h0Zm1.5,2.8a1.693,1.693,0,0,0-1.4-1.9h-0.2a1.953,1.953,0,0,0-1.8,1.9h3.408Zm13.232-2.8a3.191,3.191,0,0,1,3.208,3v0.3a3.174,3.174,0,0,1-2.907,3.5h-0.3a3.121,3.121,0,0,1-3.108-3.1v-0.3a3.174,3.174,0,0,1,2.907-3.5c0,0.1.1,0.1,0.2,0.1h0Zm-0.1,5.908a2.287,2.287,0,0,0,2-2.5c0-1.1-.6-2.5-2-2.5s-2,1.3-2,2.5c0.1,1.4.9,2.5,2,2.5h0Zm5.513-4.506h0a2.049,2.049,0,0,1,1.9-1.4h0.3v1.1h-0.4a1.712,1.712,0,0,0-1.6,1.5c0,0.2-.1.4-0.1,0.6v3.5h-1.2V57.879a12.119,12.119,0,0,0-.1-2h1Zm17.643,1.1v-0.1a1.345,1.345,0,0,0-1.2-1.5h-0.3a3.382,3.382,0,0,0-1.7.5l-0.3-.8a3.951,3.951,0,0,1,2.105-.6c2,0,2.506,1.4,2.506,2.7v2.4a9.086,9.086,0,0,0,.1,1.6h-1l-0.1-.8h0a2.618,2.618,0,0,1-2.005,1,1.887,1.887,0,0,1-2-1.7v-0.2C103.052,59.08,104.556,58.179,107.062,58.179Zm-1.6,3.4a1.719,1.719,0,0,0,1.6-1.1,2.272,2.272,0,0,0,.1-0.4v-1.1c-1.3,0-2.807.2-2.807,1.5a1.03,1.03,0,0,0,1,1.1h0.1Zm5.513-4.706h0a2.322,2.322,0,0,1,2.206-1.2c0.9,0,2.3.5,2.3,2.8v3.905h-1.2V58.58c0-1.1-.4-1.9-1.5-1.9a1.715,1.715,0,0,0-1.6,1.2,1.261,1.261,0,0,0-.1.6v3.905h-1.2V57.578a10.31,10.31,0,0,0-.1-1.8h1.1Zm9.223-1.2a4.155,4.155,0,0,1,1.6.3l-0.3.9a3.2,3.2,0,0,0-1.4-.3,2.458,2.458,0,0,0,0,4.907,4.023,4.023,0,0,0,1.5-.3l0.2,0.9a4.067,4.067,0,0,1-1.9.4,3.129,3.129,0,0,1-3.308-2.9v-0.4a3.355,3.355,0,0,1,3.208-3.5h0.4Zm25.862,2.5v-0.1a1.344,1.344,0,0,0-1.2-1.5h-0.3a3.379,3.379,0,0,0-1.7.5l-0.3-.8a3.946,3.946,0,0,1,2.1-.6c2,0,2.506,1.4,2.506,2.7v2.4a9.175,9.175,0,0,0,.1,1.6h-1.1l-0.1-.8h0a2.618,2.618,0,0,1-2.005,1,1.886,1.886,0,0,1-2-1.7v-0.2C142.147,59.08,143.55,58.179,146.056,58.179Zm-1.6,3.4a1.717,1.717,0,0,0,1.6-1.1,2.254,2.254,0,0,0,.1-0.4v-1.1c-1.3,0-2.807.2-2.807,1.5a1.03,1.03,0,0,0,1,1.1h0.1Zm5.514-4.706h0a2.321,2.321,0,0,1,2.2-1.2c0.9,0,2.306.5,2.306,2.8v3.905h-1.2V58.58c0-1.1-.4-1.9-1.5-1.9a1.716,1.716,0,0,0-1.6,1.2,1.272,1.272,0,0,0-.1.6v3.905h-1.2V57.578a10.31,10.31,0,0,0-.1-1.8h1.1Zm9.523,1.3v-0.1a1.345,1.345,0,0,0-1.2-1.5h-0.3a3.382,3.382,0,0,0-1.7.5l-0.3-.8a3.952,3.952,0,0,1,2.106-.6c2,0,2.506,1.4,2.506,2.7v2.4a9.175,9.175,0,0,0,.1,1.6h-1.1l-0.1-.8h0a2.618,2.618,0,0,1-2,1,1.887,1.887,0,0,1-2-1.7v-0.2c0.1-1.6,1.5-2.5,4.01-2.5h0Zm-1.6,3.4a1.718,1.718,0,0,0,1.6-1.1,2.272,2.272,0,0,0,.1-0.4v-1.1c-1.3,0-2.807.2-2.807,1.5a1.03,1.03,0,0,0,1,1.1h0.1Zm8.922-.4a2.362,2.362,0,0,1-2.1,1.1,2.907,2.907,0,0,1-2.807-3v-0.1c0-2.2,1.4-3.5,2.907-3.5a2.312,2.312,0,0,1,2,1.1h0l0.1-1h1c0,0.5-.1,1-0.1,1.8v3.805a4,4,0,0,1-.9,3,4.083,4.083,0,0,1-2.406.8,5.464,5.464,0,0,1-2.205-.5l0.3-.9a4.152,4.152,0,0,0,1.905.5,1.929,1.929,0,0,0,2.1-1.8v-0.5l0.2-.8h0Zm0-2.8a0.745,0.745,0,0,0-.1-0.5,1.834,1.834,0,0,0-1.7-1.3c-1.1,0-1.9,1-1.9,2.5,0,1.3.6,2.3,1.9,2.3a1.625,1.625,0,0,0,1.6-1.2,1.271,1.271,0,0,0,.1-0.6l0.1-1.2h0Zm9.222,8.211a13.117,13.117,0,0,0,2-2.8h2.506A18.992,18.992,0,0,1,166.205,73c0.4-.2.9-0.4,1.3-0.6a21.583,21.583,0,0,0,8.521-5.808h0Zm4.21-4.206V58.48a1.554,1.554,0,0,0-1.4-1.8,1.835,1.835,0,0,0-1.6,1.8v3.905h-1.2V57.578a10.31,10.31,0,0,0-.1-1.8h1l0.1,1.1h0a2.249,2.249,0,0,1,2.1-1.2,2.054,2.054,0,0,1,1.9,1.3h0a5.52,5.52,0,0,1,.7-0.9,2.4,2.4,0,0,1,1.4-.5c0.9,0,2.105.6,2.105,2.8v3.805h-1.2V58.48c0-1.3-.5-2-1.4-2a1.607,1.607,0,0,0-1.4,1.1,1.261,1.261,0,0,0-.1.6v4.005l-0.9.2h0Zm9.523-6.709c2.106,0,2.707,1.9,2.707,3.1v0.6h-4.611a2.133,2.133,0,0,0,1.9,2.3h0.3a5.688,5.688,0,0,0,1.805-.3l0.2,0.9a5.4,5.4,0,0,1-2.205.4,3.027,3.027,0,0,1-3.208-2.8v-0.5c0-2.2,1.2-3.705,3.107-3.705h0Zm1.6,2.8a1.692,1.692,0,0,0-1.4-1.9h-0.2a1.953,1.953,0,0,0-1.8,1.9h3.408Zm-3.809-26.436c1,0.4,2.105.7,3.108,1.1a3.532,3.532,0,0,1,2.205,2.4,1.883,1.883,0,0,0,2.2,1.7h0.2c0.9,0,1.9-.2,2.807-0.2a5.935,5.935,0,0,1-4.311.8,2.271,2.271,0,0,1-1.7-1.7,2.914,2.914,0,0,0-2.205-2.2c-0.9-.3-1.7-0.5-2.607-0.8-1.5-.5-2.907-1.1-4.611-1.7a8.015,8.015,0,0,1-7.318-1.3,9.544,9.544,0,0,0,7.418.2c1.805,0.6,3.308,1.1,4.812,1.7h0ZM160.09,46.964h-2.405l11.127-27.437a12.766,12.766,0,0,1,1.3-1.9,25.135,25.135,0,0,1,11.026-7.71c-2.405,1.9-4.711,3.805-7.017,5.808a22.027,22.027,0,0,0-2,2.3,13.9,13.9,0,0,0-1.6,14.42,33.493,33.493,0,0,0,4.511,7.21,31.2,31.2,0,0,1,5.313,8.511,33.857,33.857,0,0,1,1.3,4.206h-2.807a36.88,36.88,0,0,0-3.408-6.909,48.582,48.582,0,0,0-3.308-4.606,37.272,37.272,0,0,1-2.406-3.6H163.8Zm8.621-11.516a23.553,23.553,0,0,1-1.4-3.705,20.339,20.339,0,0,1-.5-2.4L164.4,35.449h4.31Zm3.81,26.135a5.683,5.683,0,0,0,1.8-.3l0.2,0.9a5.4,5.4,0,0,1-2.205.4,3.027,3.027,0,0,1-3.208-2.8v-0.5c0-2,1.2-3.5,3.108-3.5,2.1,0,2.706,1.9,2.706,3.1v0.6h-4.611a2.133,2.133,0,0,0,1.905,2.3,0.281,0.281,0,0,1,.3-0.2h0Zm1.3-3.1a1.693,1.693,0,0,0-1.4-1.9h-0.2a1.953,1.953,0,0,0-1.805,1.9h3.409Zm20.951-1.6h0a2.321,2.321,0,0,1,2.2-1.2c0.9,0,2.306.5,2.306,2.8v3.905h-1.2V58.58c0-1.1-.4-1.9-1.5-1.9a1.716,1.716,0,0,0-1.6,1.2,1.272,1.272,0,0,0-.1.6v3.905h-1.2V57.578a10.31,10.31,0,0,0-.1-1.8h1.1Z" transform="translate(0 -1)"/>
</svg>
