<svg xmlns="http://www.w3.org/2000/svg" width="471" height="152" viewBox="0 0 471 152">
  <defs>
    <style>
      .cls-1, .cls-3 {
        fill: #651e1c;
      }

      .cls-1, .cls-2, .cls-4 {
        fill-rule: evenodd;
      }

      .cls-4, .cls-5 {
        fill: #fff;
      }
    </style>
  </defs>
  <path id="Revo" class="cls-1" d="M265.619,43.861h7.541q7.779,0,11.646,2.577t3.866,8.5q0,5.824-3.579,8.782t-11.551,2.959h-7.923V43.861Zm11.264,32.265L293.589,104h12.982L286.859,73.119q13.554-5.536,13.555-18.567,0-10.213-6.491-15.273t-20-5.059H254.212V104h11.407V76.126h11.264Zm65.263,28a29.32,29.32,0,0,0,7.08-2.36V93.99a38.917,38.917,0,0,1-7.385,2.5,34.685,34.685,0,0,1-7.426.753q-6.065,0-9.4-3.52t-3.54-10.071h29.989V78.487q0-9.48-5.168-14.893t-14.079-5.412q-9.6,0-15.1,6.307t-5.493,17.334q0,10.742,5.921,16.866t16.418,6.124A43.438,43.438,0,0,0,342.146,104.122Zm-2.767-35.828q2.6,2.869,2.685,8.443H321.638q0.528-5.533,3.276-8.423a9.606,9.606,0,0,1,7.3-2.889A9.187,9.187,0,0,1,339.379,68.294ZM382.917,104l17.172-45H389.916l-9.155,26.164a71.7,71.7,0,0,0-2.849,10.661h-0.325a51.9,51.9,0,0,0-2.848-10.661L365.583,59H355.492l17.09,45h10.335Zm58.228-39.53q-5.7-6.287-15.462-6.287-10.215,0-15.829,6.144t-5.615,17.09a27.855,27.855,0,0,0,2.6,12.37,18.8,18.8,0,0,0,7.446,8.178,21.565,21.565,0,0,0,11.15,2.849q10.09,0,15.747-6.185t5.655-17.212Q446.841,70.757,441.145,64.47Zm-24.353,5.513Q419.5,66,425.52,66,437,66,437,81.417,437,97,425.6,97q-11.516,0-11.515-15.584Q414.086,73.971,416.792,69.983Z"/>
  <path id="in" class="cls-2" d="M188.4,59h-9.562v45H188.4V59ZM179.67,50.92a5.424,5.424,0,0,0,4.008,1.4,5.309,5.309,0,0,0,3.927-1.4,5.2,5.2,0,0,0,1.4-3.845,5.294,5.294,0,0,0-1.4-3.947,5.356,5.356,0,0,0-3.927-1.383,5.472,5.472,0,0,0-4.008,1.383,5.294,5.294,0,0,0-1.4,3.947A5.2,5.2,0,0,0,179.67,50.92Zm61.991,23.743q0-16.479-16.194-16.48a19.366,19.366,0,0,0-8.3,1.75,13.314,13.314,0,0,0-5.778,4.964H210.9L209.557,59H202.07v45h9.562V81.58q0-8.423,2.808-12T223.31,66q4.557,0,6.653,2.563t2.1,7.772V104h9.6V74.662Z"/>
  <path id="_2" data-name="2" class="cls-1" d="M470.969,54.768H460.6V54.54l3.06-2.881a43.678,43.678,0,0,0,4.272-4.313,11.884,11.884,0,0,0,1.791-2.954,8.21,8.21,0,0,0,.577-3.084,6.048,6.048,0,0,0-.944-3.353,6.279,6.279,0,0,0-2.653-2.279,9.059,9.059,0,0,0-3.938-.814,12.929,12.929,0,0,0-3.06.334,10.689,10.689,0,0,0-2.523.952,17.79,17.79,0,0,0-2.913,2.116L457,41.5a13.859,13.859,0,0,1,2.718-1.807,6.06,6.06,0,0,1,2.686-.635,3.061,3.061,0,0,1,2.107.7,2.705,2.705,0,0,1,.79,2.132,4.964,4.964,0,0,1-.358,1.855,8.312,8.312,0,0,1-1.172,1.945q-0.814,1.05-3.467,3.768L454.335,55.5V59h16.634V54.768Z"/>
  <circle class="cls-3" cx="76" cy="76" r="76"/>
  <path class="cls-4" d="M36,82H60v40s0.25,3.594-3,4H39a3.81,3.81,0,0,1-3-4V82Z"/>
  <path class="cls-4" d="M36,55V30a3.81,3.81,0,0,1,4-3H86s29.833,2.25,31,30c0,2.75.833,25.167-21,33l21,31s2.25,3.417-2,5H94L72,95V76s0.5-3.167,3-3,17.667,1.583,18-12c0-1.833-.5-11.917-11-13H59v7H36Z"/>
  <circle class="cls-5" cx="47" cy="69" r="8"/>
</svg>
