<?xml version="1.0" encoding="utf-8"?>
<!-- Generator: Adobe Illustrator 22.0.1, SVG Export Plug-In . SVG Version: 6.00 Build 0)  -->
<svg version="1.1" id="Layer_1" xmlns="http://www.w3.org/2000/svg" xmlns:xlink="http://www.w3.org/1999/xlink" x="0px" y="0px"
	 viewBox="0 0 160 52" style="enable-background:new 0 0 160 52;" xml:space="preserve">
<style type="text/css">
	.st0{fill:#421525;}
	.st1{fill:#1E5D2F;}
</style>
<path class="st0" d="M159.9,24.1c-0.2,0.8-0.4,1.6-0.6,2.5c-0.1,0-0.1,0-0.2,0c0-1.2,0-2.3,0-3.4c-4.6-4.7-8.6-9.6-10.6-15.8
	c2.6,4.3,5.8,8.3,8.9,12.2c0.6,0.7,1.1,1.5,1.8,2.2C159.9,22.3,160.1,23.2,159.9,24.1z M147.7,7.2c0.8-2.2,1.5-4.3,2.3-6.4
	c0.1,0.5,0.3,1.1,0.3,1.6C150.2,4.3,149.1,5.8,147.7,7.2z M149.4,1.6c-0.7,1.1-1.5,1.9-3,2.2c0.2-0.5,0.3-0.9,0.5-1.3
	c-0.9,0.5-1.8,1-2.6,1.4c0-0.1,0-0.2,0-0.3c-0.3-0.2-0.6-0.6-1-0.7c-2.3-1.1-4.6-1.2-7.1-0.8c-1.8,0.3-3.6,0.7-5.5,0.9
	c-1.6,0.2-3.2,0-4.8-0.7c3.5,0.7,6.8-0.5,10.1-1.1c3-0.5,5.7,0,8.1,1.8c1.4-0.3,2-1.7,3.2-2.7c0.2,0.6,0.4,1.1,0.6,1.6
	c0.4-0.4,0.9-0.8,1.3-1.1c0.2-0.1,0.5-0.1,0.7-0.2l0,0c0,0,0,0,0,0.1l0,0C149.8,1,149.5,1.3,149.4,1.6z M134.9,4.5
	c-2.7-0.2-5.3,0.9-7.9,1.3c-1.8,0.3-3.5,0.2-5.3-0.2c0-0.1,0-0.2,0-0.3c1,0,2.1,0.1,3,0c2.1-0.3,4.1-0.8,6.2-1.1
	C132.4,4,133.7,4,134.9,4.5z M124.6,8.2c-1,0.1-2.1,0.1-3.2,0.2c-1.9,0-3.8,0.3-5.6,1.1c1.3-1.2,2.8-1.8,4.5-1.9
	c2.4-0.1,4.8-0.1,7.4-0.2C126.7,7.9,125.6,8.1,124.6,8.2z M119.3,11.8c-0.9,0.1-1.8,0.2-2.7,0.2c-1.9,0.1-3.6,0.5-5.3,1.3
	c1.2-1.2,2.7-1.9,4.3-2c2.4-0.2,4.9-0.4,7.6-0.6C121.8,11.4,120.6,11.6,119.3,11.8z M117.9,13.9c0.2,0,0.4,0,0.7,0
	c0.7-0.1,1.4-0.1,2.1,0.2c-0.1,0-0.2,0-0.2,0c1.2,0.2,2.4,0.6,3.4,1.1l-0.6,1.4c-1.7-0.8-3.4-1.3-5.3-1.3c-0.7,0-1.3,0.1-1.9,0.2
	c-0.2,0.1-0.3,0.1-0.5,0.2c-0.8,0.4-1.7,0.6-2.6,0.9c-0.7,0.4-1.2,0.9-1.8,1.5c-1.7,1.8-2.5,4.4-2.5,7.6c0,3.3,0.8,5.8,2.3,7.6
	c1.6,1.8,3.8,2.7,6.7,2.7c1.9,0,3.7-0.2,5.3-0.7v1.4c-1.5,0.5-3.4,0.8-5.7,0.8c-3.2,0-5.8-1-7.6-3.1c-1.9-2.1-2.8-5-2.8-8.7
	c0-2.3,0.4-4.4,1.3-6.2c0.9-1.8,2.2-3.2,3.8-4.1C113.8,14.4,115.7,13.9,117.9,13.9z M100.1,14.3h1.6v23h-1.6V14.3z M89.2,37.2h-1.6
	V15.8h-7.5v-1.5h16.5v1.5h-7.5L89.2,37.2L89.2,37.2z M65.5,14.3H78v1.5H67.1v8.7h10.3V26H67.1v9.8H78v1.5H65.5V14.3z M50.6,37.5
	c-2.7,0-4.7-0.7-6.2-2.2s-2.2-3.6-2.2-6.2V14.3h1.6v14.9c0,2.2,0.6,3.9,1.8,5.2c1.2,1.2,3,1.8,5.2,1.8s3.9-0.6,5.1-1.8
	c1.2-1.2,1.8-2.9,1.8-5v-15h1.6v14.9c0,2.6-0.8,4.7-2.3,6.2C55.4,36.8,53.3,37.5,50.6,37.5z M29.6,37.2l3,3.1h-2.4l-2.4-2.8h-0.5
	h-0.5c-3.2,0-5.7-1.1-7.5-3.2c-1.8-2.1-2.7-5-2.7-8.7s0.9-6.5,2.8-8.6c1.8-2.1,4.3-3.1,7.5-3.1s5.7,1.1,7.5,3.2s2.7,5,2.7,8.6
	c0,3.1-0.7,5.6-2,7.6C33.8,35.4,32,36.7,29.6,37.2z M33.2,18.1c-1.5-1.8-3.6-2.6-6.3-2.6s-4.8,0.9-6.3,2.7c-1.5,1.8-2.2,4.3-2.2,7.6
	s0.7,5.8,2.2,7.6s3.6,2.7,6.3,2.7c2.8,0,4.9-0.9,6.3-2.7c1.5-1.8,2.2-4.3,2.2-7.6C35.3,22.4,34.6,19.9,33.2,18.1z M0,14.3h12.5v1.5
	H1.6v8.7H12V26H1.6v9.8h10.9v1.5H0V14.3z M133.1,15.2c0.4-0.9,1-1.7,1.6-2.5c2.3-2.7,5.2-4.3,8.5-5.5c-1.8,1.4-3.6,2.7-5.4,4.1
	c-0.6,0.5-1.1,1.1-1.5,1.6c-2.5,3.2-2.9,6.6-1.2,10.2c0.9,1.9,2.1,3.6,3.5,5.1c1.6,1.9,3.1,3.8,4.1,6.1c0.6,1.5,1.2,3.1,1.4,4.7
	c0.1,0.7,0.1,1.5,0.1,2.2h-2c0-1.2-0.2-2.5-0.7-3.8c-0.7-1.7-1.6-3.4-2.6-5c-0.7-1.1-1.7-2.2-2.5-3.2h-7.1l-3,7.7h-1.9L133.1,15.2
	L133.1,15.2z M132.4,21.5l-2.5,6.3h5.4c-1.1-1.6-2.1-3.3-2.6-5.2C132.6,22.3,132.5,21.9,132.4,21.5z M139.4,47.5
	c0.4-0.4,0.7-0.8,1-1.2h2c-0.2,0.3-0.4,0.6-0.7,0.8c-2.6,2.9-6,4.4-9.8,4.9c0.3-0.1,0.7-0.3,1-0.4C135.3,50.7,137.5,49.4,139.4,47.5
	z M139.2,23.6c2,0.8,4.1,0.9,5.9,0.2c1.5,0.5,2.7,1,3.9,1.4c0.8,0.3,1.6,0.5,2.4,0.9c0.9,0.3,1.5,0.9,1.7,1.9c0.3,1,0.8,1.4,1.9,1.4
	c0.7,0,1.5-0.2,2.2-0.2c-1.1,0.6-2.2,1-3.4,0.7c-0.7-0.2-1.2-0.7-1.4-1.4c-0.2-1-0.9-1.4-1.7-1.7c-0.7-0.2-1.4-0.4-2-0.7
	c-1.2-0.4-2.3-0.8-3.7-1.4C143.2,25.1,141.1,25,139.2,23.6z"/>
<g>
	<g>
		<path class="st1" d="M0.6,43.2h1.3v-0.3H0.6v-1h1.3v-0.4H0.2v3.2H2v-0.4H0.6V43.2z M6.8,42.8L6.8,42.8c-0.1-0.2-0.4-0.4-0.7-0.4
			c-0.5,0-1.1,0.4-1.1,1.3c0,0.7,0.4,1.2,1,1.2c0.4,0,0.6-0.2,0.8-0.4h0v1.3h0.4V43c0-0.2,0-0.4,0-0.6H6.8L6.8,42.8z M6.7,43.8
			c0,0.1,0,0.1,0,0.2c-0.1,0.3-0.3,0.5-0.6,0.5c-0.5,0-0.7-0.4-0.7-0.9c0-0.5,0.3-0.9,0.7-0.9c0.3,0,0.5,0.2,0.6,0.5
			c0,0.1,0,0.1,0,0.2V43.8z M12.4,42.4H12v1.4c0,0.1,0,0.2,0,0.2c-0.1,0.2-0.3,0.4-0.6,0.4c-0.4,0-0.5-0.3-0.5-0.7v-1.3h-0.4v1.4
			c0,0.8,0.4,1,0.8,1c0.4,0,0.7-0.2,0.8-0.4h0l0,0.4h0.4c0-0.2,0-0.4,0-0.6V42.4z M16.7,42.4c-0.7,0-1.1,0.6-1.1,1.3
			c0,0.7,0.4,1.2,1.1,1.2c0.4,0,0.6-0.1,0.8-0.1l-0.1-0.3c-0.2,0.1-0.3,0.1-0.6,0.1c-0.4,0-0.8-0.2-0.8-0.8h1.6c0,0,0-0.1,0-0.2
			C17.7,43,17.5,42.4,16.7,42.4z M16,43.3c0-0.3,0.2-0.7,0.6-0.7c0.5,0,0.6,0.4,0.6,0.7H16z M21.6,43.4c-0.3-0.1-0.4-0.2-0.4-0.4
			c0-0.2,0.1-0.3,0.4-0.3c0.2,0,0.4,0.1,0.5,0.1l0.1-0.3c-0.1-0.1-0.3-0.1-0.6-0.1c-0.5,0-0.8,0.3-0.8,0.7c0,0.3,0.2,0.5,0.6,0.7
			c0.3,0.1,0.4,0.2,0.4,0.4c0,0.2-0.1,0.3-0.5,0.3c-0.2,0-0.4-0.1-0.6-0.2l-0.1,0.3c0.2,0.1,0.4,0.2,0.7,0.2c0.6,0,0.9-0.3,0.9-0.7
			C22.2,43.7,22,43.5,21.6,43.4z M25.9,41.7l-0.4,0.1v0.6h-0.4v0.3h0.4V44c0,0.3,0,0.5,0.2,0.6c0.1,0.1,0.3,0.2,0.5,0.2
			c0.2,0,0.3,0,0.4-0.1l0-0.3c-0.1,0-0.1,0-0.2,0c-0.2,0-0.3-0.2-0.3-0.5v-1.3h0.6v-0.3h-0.6V41.7z M30,42.9L30,42.9l0-0.5h-0.4
			c0,0.2,0,0.5,0,0.7v1.6H30v-1.2c0-0.1,0-0.1,0-0.2c0.1-0.3,0.3-0.5,0.6-0.5c0.1,0,0.1,0,0.1,0v-0.4c0,0-0.1,0-0.1,0
			C30.3,42.4,30.1,42.5,30,42.9z M34,41.5c-0.2,0-0.3,0.1-0.3,0.3c0,0.1,0.1,0.3,0.3,0.3c0.2,0,0.3-0.1,0.3-0.3
			C34.3,41.6,34.2,41.5,34,41.5z M33.8,44.7h0.4v-2.3h-0.4V44.7z M39.2,43.3c0-0.5-0.2-1-0.9-1c-0.3,0-0.6,0.1-0.8,0.2l0.1,0.3
			c0.2-0.1,0.4-0.2,0.6-0.2c0.5,0,0.5,0.3,0.5,0.5v0c-0.9,0-1.4,0.3-1.4,0.9c0,0.3,0.2,0.7,0.7,0.7c0.3,0,0.6-0.2,0.7-0.3h0l0,0.3
			h0.4c0-0.2,0-0.4,0-0.6V43.3z M38.8,43.9c0,0,0,0.1,0,0.1c-0.1,0.2-0.3,0.4-0.6,0.4c-0.2,0-0.4-0.1-0.4-0.4c0-0.5,0.5-0.5,1-0.5
			V43.9z M43.7,42.4c-0.4,0-0.7,0.2-0.8,0.4h0l0-0.4h-0.4c0,0.2,0,0.4,0,0.6v1.7H43v-1.4c0-0.1,0-0.1,0-0.2c0.1-0.2,0.3-0.4,0.6-0.4
			c0.4,0,0.5,0.3,0.5,0.7v1.3h0.4v-1.4C44.5,42.5,44,42.4,43.7,42.4z M52.3,41.5c-0.3,0-0.6,0-0.8,0.1v3.2h0.4v-1.3
			c0.1,0,0.2,0,0.3,0c0.4,0,0.8-0.1,1-0.4c0.2-0.2,0.2-0.4,0.2-0.7c0-0.3-0.1-0.5-0.3-0.7C53,41.6,52.7,41.5,52.3,41.5z M52.3,43.1
			c-0.1,0-0.3,0-0.3,0v-1.3c0.1,0,0.2,0,0.4,0c0.5,0,0.8,0.2,0.8,0.6C53.1,42.9,52.8,43.1,52.3,43.1z M57.5,42.4
			c-0.7,0-1.1,0.6-1.1,1.3c0,0.7,0.4,1.2,1.1,1.2c0.4,0,0.6-0.1,0.8-0.1l-0.1-0.3c-0.2,0.1-0.3,0.1-0.6,0.1c-0.4,0-0.8-0.2-0.8-0.8
			h1.6c0,0,0-0.1,0-0.2C58.5,43,58.3,42.4,57.5,42.4z M56.8,43.3c0-0.3,0.2-0.7,0.6-0.7c0.5,0,0.6,0.4,0.6,0.7H56.8z M62,42.9
			L62,42.9l0-0.5h-0.4c0,0.2,0,0.5,0,0.7v1.6H62v-1.2c0-0.1,0-0.1,0-0.2c0.1-0.3,0.3-0.5,0.6-0.5c0.1,0,0.1,0,0.1,0v-0.4
			c0,0-0.1,0-0.1,0C62.4,42.4,62.1,42.5,62,42.9z M66.3,41.5C66.1,41.7,66,42,66,42.3v0.1h-0.3v0.3H66v2h0.4v-2H67v-0.3h-0.6v-0.1
			c0-0.4,0.1-0.7,0.5-0.7c0.1,0,0.2,0,0.3,0.1l0.1-0.3c-0.1,0-0.2-0.1-0.4-0.1C66.7,41.3,66.4,41.3,66.3,41.5z M70.9,42.4
			c-0.6,0-1.2,0.5-1.2,1.2c0,0.7,0.5,1.2,1.1,1.2c0.6,0,1.2-0.4,1.2-1.2C72.1,42.8,71.6,42.4,70.9,42.4z M70.9,44.5
			c-0.4,0-0.7-0.4-0.7-0.9c0-0.4,0.2-0.9,0.7-0.9c0.5,0,0.7,0.5,0.7,0.9C71.6,44.1,71.3,44.5,70.9,44.5z M75.6,42.9L75.6,42.9l0-0.5
			h-0.4c0,0.2,0,0.5,0,0.7v1.6h0.4v-1.2c0-0.1,0-0.1,0-0.2c0.1-0.3,0.3-0.5,0.6-0.5c0.1,0,0.1,0,0.1,0v-0.4c0,0-0.1,0-0.1,0
			C76,42.4,75.7,42.5,75.6,42.9z M82,42.4c-0.2,0-0.4,0.1-0.5,0.2c-0.1,0.1-0.2,0.2-0.3,0.3h0c-0.1-0.3-0.3-0.5-0.7-0.5
			c-0.4,0-0.6,0.2-0.7,0.4h0l0-0.4h-0.4c0,0.2,0,0.4,0,0.6v1.7h0.4v-1.4c0-0.1,0-0.1,0-0.2c0.1-0.2,0.3-0.4,0.5-0.4
			c0.3,0,0.5,0.3,0.5,0.6v1.4h0.4v-1.4c0-0.1,0-0.2,0-0.2c0.1-0.2,0.3-0.4,0.5-0.4c0.3,0,0.5,0.3,0.5,0.7v1.3h0.4v-1.4
			C82.8,42.6,82.3,42.4,82,42.4z M87.7,43.3c0-0.5-0.2-1-0.9-1c-0.3,0-0.6,0.1-0.8,0.2l0.1,0.3c0.2-0.1,0.4-0.2,0.6-0.2
			c0.5,0,0.5,0.3,0.5,0.5v0c-0.9,0-1.4,0.3-1.4,0.9c0,0.3,0.2,0.7,0.7,0.7c0.3,0,0.6-0.2,0.7-0.3h0l0,0.3h0.4c0-0.2,0-0.4,0-0.6
			V43.3z M87.3,43.9c0,0,0,0.1,0,0.1c-0.1,0.2-0.3,0.4-0.6,0.4c-0.2,0-0.4-0.1-0.4-0.4c0-0.5,0.5-0.5,1-0.5V43.9z M92.2,42.4
			c-0.4,0-0.7,0.2-0.8,0.4h0l0-0.4H91c0,0.2,0,0.4,0,0.6v1.7h0.4v-1.4c0-0.1,0-0.1,0-0.2c0.1-0.2,0.3-0.4,0.6-0.4
			c0.4,0,0.5,0.3,0.5,0.7v1.3H93v-1.4C93,42.5,92.5,42.4,92.2,42.4z M97.4,42.7c0.2,0,0.4,0.1,0.5,0.1l0.1-0.3
			c-0.1-0.1-0.3-0.1-0.6-0.1c-0.8,0-1.2,0.5-1.2,1.2c0,0.7,0.5,1.2,1.2,1.2c0.3,0,0.6-0.1,0.7-0.1l-0.1-0.3
			c-0.1,0.1-0.3,0.1-0.5,0.1c-0.5,0-0.8-0.3-0.8-0.9C96.6,43.1,96.9,42.7,97.4,42.7z M102,42.4c-0.7,0-1.1,0.6-1.1,1.3
			c0,0.7,0.4,1.2,1.1,1.2c0.4,0,0.6-0.1,0.8-0.1l-0.1-0.3c-0.2,0.1-0.3,0.1-0.6,0.1c-0.4,0-0.8-0.2-0.8-0.8h1.6c0,0,0-0.1,0-0.2
			C103,43,102.8,42.4,102,42.4z M101.4,43.3c0-0.3,0.2-0.7,0.6-0.7c0.5,0,0.6,0.4,0.6,0.7H101.4z M112.3,41.5l-0.6,1.6
			c-0.1,0.4-0.3,0.8-0.3,1.1h0c-0.1-0.3-0.2-0.7-0.3-1.1l-0.6-1.6H110l-0.2,3.2h0.4l0.1-1.4c0-0.5,0.1-1,0.1-1.4h0
			c0.1,0.4,0.2,0.8,0.4,1.3l0.5,1.5h0.3l0.6-1.6c0.2-0.4,0.3-0.8,0.4-1.2h0c0,0.4,0,0.9,0,1.4l0.1,1.4h0.4l-0.2-3.2H112.3z
			 M118,43.3c0-0.5-0.2-1-0.9-1c-0.3,0-0.6,0.1-0.8,0.2l0.1,0.3c0.2-0.1,0.4-0.2,0.6-0.2c0.5,0,0.5,0.3,0.5,0.5v0
			c-0.9,0-1.4,0.3-1.4,0.9c0,0.3,0.2,0.7,0.7,0.7c0.3,0,0.6-0.2,0.7-0.3h0l0,0.3h0.4c0-0.2,0-0.4,0-0.6V43.3z M117.6,43.9
			c0,0,0,0.1,0,0.1c-0.1,0.2-0.3,0.4-0.6,0.4c-0.2,0-0.4-0.1-0.4-0.4c0-0.5,0.5-0.5,1-0.5V43.9z M122.5,42.4c-0.4,0-0.7,0.2-0.8,0.4
			h0l0-0.4h-0.4c0,0.2,0,0.4,0,0.6v1.7h0.4v-1.4c0-0.1,0-0.1,0-0.2c0.1-0.2,0.3-0.4,0.6-0.4c0.4,0,0.5,0.3,0.5,0.7v1.3h0.4v-1.4
			C123.3,42.5,122.8,42.4,122.5,42.4z M128.2,43.3c0-0.5-0.2-1-0.9-1c-0.3,0-0.6,0.1-0.8,0.2l0.1,0.3c0.2-0.1,0.4-0.2,0.6-0.2
			c0.5,0,0.5,0.3,0.5,0.5v0c-0.9,0-1.4,0.3-1.4,0.9c0,0.3,0.2,0.7,0.7,0.7c0.3,0,0.6-0.2,0.7-0.3h0l0,0.3h0.4c0-0.2,0-0.4,0-0.6
			V43.3z M127.8,43.9c0,0,0,0.1,0,0.1c-0.1,0.2-0.3,0.4-0.6,0.4c-0.2,0-0.4-0.1-0.4-0.4c0-0.5,0.5-0.5,1-0.5V43.9z M133.2,42.8
			L133.2,42.8c-0.1-0.2-0.3-0.4-0.7-0.4c-0.5,0-1,0.4-1,1.2c0,0.6,0.4,1.1,1,1.1c0.4,0,0.6-0.2,0.7-0.4h0v0.3c0,0.6-0.3,0.8-0.7,0.8
			c-0.3,0-0.5-0.1-0.7-0.2l-0.1,0.3c0.2,0.1,0.5,0.2,0.8,0.2c0.3,0,0.6-0.1,0.8-0.3c0.2-0.2,0.3-0.5,0.3-1.1V43c0-0.3,0-0.5,0-0.6
			h-0.4L133.2,42.8z M133.1,43.7c0,0.1,0,0.2,0,0.2c-0.1,0.3-0.3,0.4-0.6,0.4c-0.5,0-0.7-0.4-0.7-0.8c0-0.5,0.3-0.9,0.7-0.9
			c0.3,0,0.5,0.2,0.6,0.4c0,0.1,0,0.1,0,0.2V43.7z M137.8,42.4c-0.7,0-1.1,0.6-1.1,1.3c0,0.7,0.4,1.2,1.1,1.2c0.4,0,0.6-0.1,0.8-0.1
			l-0.1-0.3c-0.2,0.1-0.3,0.1-0.6,0.1c-0.4,0-0.8-0.2-0.8-0.8h1.6c0,0,0-0.1,0-0.2C138.8,43,138.6,42.4,137.8,42.4z M137.1,43.3
			c0-0.3,0.2-0.7,0.6-0.7c0.5,0,0.6,0.4,0.6,0.7H137.1z M144.5,42.4c-0.2,0-0.4,0.1-0.5,0.2c-0.1,0.1-0.2,0.2-0.3,0.3h0
			c-0.1-0.3-0.3-0.5-0.7-0.5c-0.4,0-0.6,0.2-0.7,0.4h0l0-0.4h-0.4c0,0.2,0,0.4,0,0.6v1.7h0.4v-1.4c0-0.1,0-0.1,0-0.2
			c0.1-0.2,0.3-0.4,0.5-0.4c0.3,0,0.5,0.3,0.5,0.6v1.4h0.4v-1.4c0-0.1,0-0.2,0-0.2c0.1-0.2,0.3-0.4,0.5-0.4c0.3,0,0.5,0.3,0.5,0.7
			v1.3h0.4v-1.4C145.2,42.6,144.8,42.4,144.5,42.4z M149.5,42.4c-0.7,0-1.1,0.6-1.1,1.3c0,0.7,0.4,1.2,1.1,1.2
			c0.4,0,0.6-0.1,0.8-0.1l-0.1-0.3c-0.2,0.1-0.3,0.1-0.6,0.1c-0.4,0-0.8-0.2-0.8-0.8h1.6c0,0,0-0.1,0-0.2
			C150.5,43,150.3,42.4,149.5,42.4z M148.8,43.3c0-0.3,0.2-0.7,0.6-0.7c0.5,0,0.6,0.4,0.6,0.7H148.8z M154.8,42.4
			c-0.4,0-0.7,0.2-0.8,0.4h0l0-0.4h-0.4c0,0.2,0,0.4,0,0.6v1.7h0.4v-1.4c0-0.1,0-0.1,0-0.2c0.1-0.2,0.3-0.4,0.6-0.4
			c0.4,0,0.5,0.3,0.5,0.7v1.3h0.4v-1.4C155.6,42.5,155.1,42.4,154.8,42.4z M160,42.7v-0.3h-0.6v-0.7l-0.4,0.1v0.6h-0.4v0.3h0.4V44
			c0,0.3,0,0.5,0.2,0.6c0.1,0.1,0.3,0.2,0.5,0.2c0.2,0,0.3,0,0.4-0.1l0-0.3c-0.1,0-0.1,0-0.2,0c-0.2,0-0.3-0.2-0.3-0.5v-1.3H160z"/>
	</g>
</g>
</svg>
